# xmcd
#
# Track frame offsets:
#	150
#	18577
#	33592
#	61830
#	74437
#	104275
#	133545
#	150750
#	168105
#	194795
#	214635
#	231987
#	259802
#	280102
#	295395
#	315855
#
# Disc length: 4355 seconds
#
# Revision: 1
# Processed by: cddbd v1.5.2PL0 Copyright (c) Steve Scherf et al.
# Submitted via: audiograbber 1.83.01
#
DISCID=e1110110
DTITLE=Various Artist - Sacramento Blues
DYEAR=1992
DGENRE=Blues
TTITLE0=Johnny Heartsman - Key To The Highway
TTITLE1=Omar (The Magnificent) Sharriff - House Built By The Blues
TTITLE2=Arbess Williams - Breaking Up Somebody's Home
TTITLE3=Bobby 'Blues' Ray  - Your Friends
TTITLE4=Johnny 'Guitar' Knox and Rick Estrin - Johnny's Hobo Blues
TTITLE5=The Blues Ambassadors - Honky Tonkin'
TTITLE6=Too Much Blues - T-Bone Shuffle
TTITLE7=Bill Scholer - Mr. Guitarhead
TTITLE8=Lena Mosley and The Bad Shoes Blues Band - Dr. Feelgood
TTITLE9=The Soul Prophets  - Part Time Love
TTITLE10=Gary Black - I've Got News For You
TTITLE11=Glenn Lane and The Soul Of The Blues - Book Of The Blues
TTITLE12=Mick Martin and The Steve Foster Blues Band - Can't Stop Thinkin' (About
TTITLE12=Your Love)
TTITLE13=Tommy Twang and The Electric Stimulators - Recession Blues
TTITLE14=Catfish and The Ageless Wonders - I Wanna Bop
TTITLE15=Jim Monroe - Spann's Stomp
EXTD=Sacramento Blues Society 1992\nSBS-CD 1
EXTT0=
EXTT1=
EXTT2=
EXTT3=
EXTT4=
EXTT5=
EXTT6=
EXTT7=
EXTT8=
EXTT9=
EXTT10=
EXTT11=
EXTT12=
EXTT13=
EXTT14=
EXTT15=
PLAYORDER=
